# xmcd
# Track frame offsets:
# 150
# 11695
# 28425
# 42575
# 56207
# 67397
# 78860
# 95997
# 109947
# 123707
#
# Disc length: 1870 seconds
# Revision: 0
# Processed by: cddbd v1.4PL0 Copyright (c) Steve Scherf et al.
# Submitted via: VisiTrax 2.9.5.180 - For more info visit www.synapsa.com
#
DISCID=9d074c0a
DTITLE=Kae Lynette - Danger
DYEAR=1999
DGENRE=
TTITLE0=Tie me up
TTITLE1=If my wishes had wings
TTITLE2=Are we there yet mama
TTITLE3=Hearts are gonna roll
TTITLE4=She's cleaning house tonight
TTITLE5=Danger
TTITLE6=Homeless heart
TTITLE7=One day sunshine
TTITLE8=Drivers seat
TTITLE9=Still look up to you
EXTD=
EXTT0=
EXTT1=
EXTT2=
EXTT3=
EXTT4=
EXTT5=
EXTT6=
EXTT7=
EXTT8=
EXTT9=
PLAYORDER=
